<svg width="175" height="68" viewBox="0 0 175 68" fill="none" xmlns="http://www.w3.org/2000/svg">
<g filter="url(#filter0_d_5_75)">
<rect x="5.49399" y="0.5" width="165.006" height="59" stroke="black" shape-rendering="crispEdges"/>
</g>
<g filter="url(#filter1_d_5_75)">
<path d="M24.136 49.7947C18.6747 49.7947 14.7493 48.6 12.36 46.2107C10.0133 43.8213 8.84 40.3653 8.84 35.8427V4.99467H17.864V35.8427C17.864 38.1893 18.376 39.9387 19.4 41.0907C20.424 42.2 22.0027 42.7547 24.136 42.7547H38.472V49.7947H24.136ZM59.949 50.5627C54.0183 50.5627 49.4743 49.1973 46.317 46.4667C43.2023 43.6933 41.645 39.6187 41.645 34.2427V20.5467C41.645 15.1707 43.2023 11.1173 46.317 8.38668C49.4743 5.61334 54.0183 4.22668 59.949 4.22668C65.8797 4.22668 70.4023 5.61334 73.517 8.38668C76.6743 11.1173 78.253 15.1707 78.253 20.5467V34.2427C78.253 39.6187 76.6743 43.6933 73.517 46.4667C70.4023 49.1973 65.8797 50.5627 59.949 50.5627ZM59.949 43.5227C62.9357 43.5227 65.2183 42.7333 66.797 41.1547C68.4183 39.5333 69.229 37.2293 69.229 34.2427V20.5467C69.229 17.56 68.4183 15.2773 66.797 13.6987C65.2183 12.0773 62.9357 11.2667 59.949 11.2667C56.9623 11.2667 54.6583 12.0773 53.037 13.6987C51.4583 15.2773 50.669 17.56 50.669 20.5467V34.2427C50.669 37.2293 51.4583 39.5333 53.037 41.1547C54.6583 42.7333 56.9623 43.5227 59.949 43.5227ZM104.086 50.5627C97.9847 50.5627 93.3127 49.1973 90.07 46.4667C86.87 43.6933 85.27 39.6187 85.27 34.2427V20.5467C85.27 15.1707 86.87 11.1173 90.07 8.38668C93.3127 5.61334 97.9847 4.22668 104.086 4.22668C108.481 4.22668 112.065 4.93068 114.838 6.33868C117.654 7.74668 119.873 9.83734 121.494 12.6107L114.646 17.2827C113.323 15.1493 111.915 13.6133 110.422 12.6747C108.929 11.736 106.817 11.2667 104.086 11.2667C100.673 11.2667 98.1767 12.056 96.598 13.6347C95.062 15.1707 94.294 17.4747 94.294 20.5467V34.2427C94.294 37.3147 95.062 39.64 96.598 41.2187C98.1767 42.7547 100.673 43.5227 104.086 43.5227C107.073 43.5227 109.334 43.032 110.87 42.0507C112.449 41.0267 113.238 39.5547 113.238 37.6347V35.6507C113.238 33.0053 112.022 31.6827 109.59 31.6827H102.294V24.6427H112.15C115.563 24.6427 118.081 25.432 119.702 27.0107C121.323 28.5893 122.134 31.0427 122.134 34.3707V38.2747C122.134 42.1147 120.513 45.1227 117.27 47.2987C114.027 49.4747 109.633 50.5627 104.086 50.5627ZM146.699 50.5627C140.768 50.5627 136.224 49.1973 133.067 46.4667C129.952 43.6933 128.395 39.6187 128.395 34.2427V20.5467C128.395 15.1707 129.952 11.1173 133.067 8.38668C136.224 5.61334 140.768 4.22668 146.699 4.22668C152.63 4.22668 157.152 5.61334 160.267 8.38668C163.424 11.1173 165.003 15.1707 165.003 20.5467V34.2427C165.003 39.6187 163.424 43.6933 160.267 46.4667C157.152 49.1973 152.63 50.5627 146.699 50.5627ZM146.699 43.5227C149.686 43.5227 151.968 42.7333 153.547 41.1547C155.168 39.5333 155.979 37.2293 155.979 34.2427V20.5467C155.979 17.56 155.168 15.2773 153.547 13.6987C151.968 12.0773 149.686 11.2667 146.699 11.2667C143.712 11.2667 141.408 12.0773 139.787 13.6987C138.208 15.2773 137.419 17.56 137.419 20.5467V34.2427C137.419 37.2293 138.208 39.5333 139.787 41.1547C141.408 42.7333 143.712 43.5227 146.699 43.5227Z" fill="black"/>
</g>
<defs>
<filter id="filter0_d_5_75" x="0.993988" y="0" width="174.006" height="68" filterUnits="userSpaceOnUse" color-interpolation-filters="sRGB">
<feFlood flood-opacity="0" result="BackgroundImageFix"/>
<feColorMatrix in="SourceAlpha" type="matrix" values="0 0 0 0 0 0 0 0 0 0 0 0 0 0 0 0 0 0 127 0" result="hardAlpha"/>
<feOffset dy="4"/>
<feGaussianBlur stdDeviation="2"/>
<feComposite in2="hardAlpha" operator="out"/>
<feColorMatrix type="matrix" values="0 0 0 0 0 0 0 0 0 0 0 0 0 0 0 0 0 0 0.25 0"/>
<feBlend mode="normal" in2="BackgroundImageFix" result="effect1_dropShadow_5_75"/>
<feBlend mode="normal" in="SourceGraphic" in2="effect1_dropShadow_5_75" result="shape"/>
</filter>
<filter id="filter1_d_5_75" x="6.84" y="4.22668" width="164.163" height="54.336" filterUnits="userSpaceOnUse" color-interpolation-filters="sRGB">
<feFlood flood-opacity="0" result="BackgroundImageFix"/>
<feColorMatrix in="SourceAlpha" type="matrix" values="0 0 0 0 0 0 0 0 0 0 0 0 0 0 0 0 0 0 127 0" result="hardAlpha"/>
<feOffset dx="2" dy="4"/>
<feGaussianBlur stdDeviation="2"/>
<feComposite in2="hardAlpha" operator="out"/>
<feColorMatrix type="matrix" values="0 0 0 0 0 0 0 0 0 0 0 0 0 0 0 0 0 0 0.35 0"/>
<feBlend mode="normal" in2="BackgroundImageFix" result="effect1_dropShadow_5_75"/>
<feBlend mode="normal" in="SourceGraphic" in2="effect1_dropShadow_5_75" result="shape"/>
</filter>
</defs>
</svg>
